<svg xmlns="http://www.w3.org/2000/svg" fill="none" viewBox="0.06 11.13 600 49.58" aria-label="HUMAIN CHAT">
  <g clip-path="url(#humain-chat_svg__a)">
    <g clip-path="url(#humain-chat_svg__b)">
      <path fill="#000" d="M105.696 36.887c0 8.578-5.478 14.78-13.126 14.78-7.649 0-13.127-6.15-13.127-14.78V12.133h-9.302v24.754c0 13.694 9.56 23.823 22.429 23.823 12.867 0 22.428-10.129 22.428-23.823V12.133h-9.302zM152.774 32.132h-.672l-14.624-20h-8.424v47.596h9.302v-33.28h.155s.93 3.049 2.584 5.322l6.563 8.94h9.302l6.563-8.94c1.654-2.273 2.584-5.322 2.584-5.322h.155V59.78h9.302V12.133h-8.423l-14.625 20zM204.815 12.133l-19.173 47.595h9.871l3.824-9.508h24.702l3.824 9.508h10.129l-19.121-47.595zm-2.016 29.508 8.424-20.93h.93l8.424 20.93h-17.829zM257.113 12.133h-9.302v47.595h9.302zM308.584 12.133V45l-28.991-32.867h-8.424v47.596h9.302V26.912l28.992 32.867h8.423V12.133zM46.834 22.21H9.367v-9.974H.065v47.596h9.302V49.806h37.415v10.026h9.302V12.236h-9.302v10.026zM9.367 41.176V30.84h37.415v10.336z"/>
      <path fill="#00D49C" d="M380.267 40.137h10.176c-1.902 12.077-11.602 20.444-24.439 20.444-14.263 0-24.723-10.46-24.723-24.723 0-14.264 10.46-24.723 24.723-24.723 12.837 0 22.537 8.367 24.439 20.444h-10.176c-1.617-6.848-7.132-11.41-14.263-11.41-8.558 0-14.739 6.655-14.739 15.689 0 9.033 6.181 15.69 14.739 15.69 7.131 0 12.646-4.662 14.263-11.411M410.886 31.579h28.527V12.086h9.509V59.63h-9.509V40.137h-28.527V59.63h-9.508V12.086h9.508zM457.955 59.63l19.493-47.544h14.263l19.493 47.544h-10.268l-3.897-9.509h-25.105l-3.896 9.509H457.96zm35.56-18.067-8.558-20.92h-.951l-8.558 20.92zM509.303 12.086h47.544v8.558h-19.018V59.63h-9.509V20.644h-19.017zM570.769 16.525h3.711c1.013 0 1.69.677 1.69 1.69 0 .44-.192.812-.507 1.06.46.237.729.65.729 1.193 0 1.013-.677 1.69-1.69 1.69h-3.938v-5.622zm3.711 2.305c.336 0 .563-.227.563-.563v-.17c0-.337-.227-.564-.563-.564h-2.589v1.292h2.589zm-2.584 2.305h2.811c.336 0 .563-.227.563-.563v-.17c0-.337-.227-.564-.563-.564h-2.811v1.292zM578.867 17.538v1.292h3.261v1.013h-3.261v1.292h4.388v1.013h-5.515v-5.623h5.515v1.013zM584.267 16.525h5.623v1.013h-2.248v4.61h-1.127v-4.61h-2.248zM589.667 22.148l2.305-5.623h1.69l2.305 5.623h-1.214l-.46-1.127h-2.972l-.46 1.127zm4.207-2.134-1.013-2.476h-.114l-1.012 2.476z"/>
      <path fill="#00D49C" d="M595.983 13.079a3.051 3.051 0 0 1 3.049 3.049v6.733a3.052 3.052 0 0 1-3.049 3.05h-26.361a3.051 3.051 0 0 1-3.049-3.05v-6.733a3.051 3.051 0 0 1 3.049-3.05zm0-1.034h-26.361a4.081 4.081 0 0 0-4.083 4.083v6.733a4.082 4.082 0 0 0 4.083 4.083h26.361a4.081 4.081 0 0 0 4.082-4.083v-6.733a4.08 4.08 0 0 0-4.082-4.083"/>
    </g>
  </g>
  <defs>
    <clipPath id="humain-chat_svg__a"><path fill="#fff" d="M.065.135h600v72h-600z"/></clipPath>
    <clipPath id="humain-chat_svg__b"><path fill="#fff" d="M.065 11.135h600V60.71h-600z"/></clipPath>
  </defs>
</svg>


